<svg width="24" height="24" viewBox="0 0 24 24" fill="none" xmlns="http://www.w3.org/2000/svg">
<path d="M11 21.95V20.95C8.91666 20.7167 7.12899 19.8543 5.63699 18.363C4.14499 16.8717 3.28266 15.084 3.04999 13H2.04999C1.76666 13 1.52932 12.904 1.33799 12.712C1.14666 12.52 1.05066 12.2827 1.04999 12C1.04932 11.7173 1.14532 11.48 1.33799 11.288C1.53066 11.096 1.76799 11 2.04999 11H3.04999C3.28332 8.91666 4.14599 7.12899 5.63799 5.63699C7.12999 4.14499 8.91733 3.28266 11 3.04999V2.04999C11 1.76666 11.096 1.52932 11.288 1.33799C11.48 1.14666 11.7173 1.05066 12 1.04999C12.2827 1.04932 12.5203 1.14532 12.713 1.33799C12.9057 1.53066 13.0013 1.76799 13 2.04999V3.04999C15.0833 3.28332 16.871 4.14599 18.363 5.63799C19.855 7.12999 20.7173 8.91733 20.95 11H21.95C22.2333 11 22.471 11.096 22.663 11.288C22.855 11.48 22.9507 11.7173 22.95 12C22.9493 12.2827 22.8537 12.5203 22.663 12.713C22.4723 12.9057 22.2347 13.0013 21.95 13H20.95C20.7167 15.0833 19.8543 16.871 18.363 18.363C16.8717 19.855 15.084 20.7173 13 20.95V21.95C13 22.2333 12.904 22.471 12.712 22.663C12.52 22.855 12.2827 22.9507 12 22.95C11.7173 22.9493 11.48 22.8537 11.288 22.663C11.096 22.4723 11 22.2347 11 21.95ZM12 19C13.9333 19 15.5833 18.3167 16.95 16.95C18.3167 15.5833 19 13.9333 19 12C19 10.0667 18.3167 8.41666 16.95 7.04999C15.5833 5.68332 13.9333 4.99999 12 4.99999C10.0667 4.99999 8.41666 5.68332 7.04999 7.04999C5.68332 8.41666 4.99999 10.0667 4.99999 12C4.99999 13.9333 5.68332 15.5833 7.04999 16.95C8.41666 18.3167 10.0667 19 12 19ZM12 16C10.9 16 9.95833 15.6083 9.17499 14.825C8.39166 14.0417 7.99999 13.1 7.99999 12C7.99999 10.9 8.39166 9.95833 9.17499 9.17499C9.95833 8.39166 10.9 7.99999 12 7.99999C13.1 7.99999 14.0417 8.39166 14.825 9.17499C15.6083 9.95833 16 10.9 16 12C16 13.1 15.6083 14.0417 14.825 14.825C14.0417 15.6083 13.1 16 12 16ZM12 14C12.55 14 13.021 13.8043 13.413 13.413C13.805 13.0217 14.0007 12.5507 14 12C13.9993 11.4493 13.8037 10.9787 13.413 10.588C13.0223 10.1973 12.5513 10.0013 12 9.99999C11.4487 9.99866 10.978 10.1947 10.588 10.588C10.198 10.9813 10.002 11.452 9.99999 12C9.99799 12.548 10.194 13.019 10.588 13.413C10.982 13.807 11.4527 14.0027 12 14Z" fill="black"/>
</svg>
